<mxfile host="65bd71144e">
    <diagram name="Page-1" id="gZSL8lH19jMo5-msxoiI">
        <mxGraphModel dx="760" dy="662" grid="1" gridSize="10" guides="1" tooltips="1" connect="1" arrows="1" fold="1" page="1" pageScale="1" pageWidth="827" pageHeight="1169" math="0" shadow="0">
            <root>
                <mxCell id="0"/>
                <mxCell id="1" parent="0"/>
                <mxCell id="71TkZ0XSwTf5tJo2yDu4-2" value="" style="rounded=0;whiteSpace=wrap;html=1;" parent="1" vertex="1">
                    <mxGeometry x="450" y="380" width="810" height="1398" as="geometry"/>
                </mxCell>
                <mxCell id="6" style="edgeStyle=none;html=1;exitX=1;exitY=0.3333333333333333;exitDx=0;exitDy=0;exitPerimeter=0;entryX=0;entryY=0.5;entryDx=0;entryDy=0;endArrow=none;endFill=0;" parent="1" source="71TkZ0XSwTf5tJo2yDu4-3" target="71TkZ0XSwTf5tJo2yDu4-10" edge="1">
                    <mxGeometry relative="1" as="geometry"/>
                </mxCell>
                <mxCell id="8" style="edgeStyle=none;html=1;exitX=1;exitY=0.3333333333333333;exitDx=0;exitDy=0;exitPerimeter=0;entryX=0;entryY=0.5;entryDx=0;entryDy=0;endArrow=none;endFill=0;" parent="1" source="71TkZ0XSwTf5tJo2yDu4-3" target="71TkZ0XSwTf5tJo2yDu4-37" edge="1">
                    <mxGeometry relative="1" as="geometry"/>
                </mxCell>
                <mxCell id="9" style="edgeStyle=none;html=1;exitX=1;exitY=0.3333333333333333;exitDx=0;exitDy=0;exitPerimeter=0;entryX=0;entryY=0.5;entryDx=0;entryDy=0;endArrow=none;endFill=0;" parent="1" source="71TkZ0XSwTf5tJo2yDu4-3" target="71TkZ0XSwTf5tJo2yDu4-36" edge="1">
                    <mxGeometry relative="1" as="geometry"/>
                </mxCell>
                <mxCell id="42" style="edgeStyle=none;html=1;exitX=1;exitY=0.3333333333333333;exitDx=0;exitDy=0;exitPerimeter=0;entryX=0;entryY=0.5;entryDx=0;entryDy=0;endArrow=none;endFill=0;" parent="1" source="71TkZ0XSwTf5tJo2yDu4-3" target="26" edge="1">
                    <mxGeometry relative="1" as="geometry"/>
                </mxCell>
                <mxCell id="71TkZ0XSwTf5tJo2yDu4-3" value="Chauffeur" style="shape=umlActor;verticalLabelPosition=bottom;verticalAlign=top;html=1;outlineConnect=0;" parent="1" vertex="1">
                    <mxGeometry x="360" y="783" width="30" height="60" as="geometry"/>
                </mxCell>
                <mxCell id="2" style="edgeStyle=none;html=1;exitX=1;exitY=0.3333333333333333;exitDx=0;exitDy=0;exitPerimeter=0;entryX=0;entryY=0.5;entryDx=0;entryDy=0;endArrow=none;endFill=0;" parent="1" source="71TkZ0XSwTf5tJo2yDu4-7" target="71TkZ0XSwTf5tJo2yDu4-8" edge="1">
                    <mxGeometry relative="1" as="geometry"/>
                </mxCell>
                <mxCell id="3" style="edgeStyle=none;html=1;exitX=1;exitY=0.3333333333333333;exitDx=0;exitDy=0;exitPerimeter=0;entryX=0;entryY=0.5;entryDx=0;entryDy=0;endArrow=none;endFill=0;" parent="1" source="71TkZ0XSwTf5tJo2yDu4-7" target="71TkZ0XSwTf5tJo2yDu4-14" edge="1">
                    <mxGeometry relative="1" as="geometry"/>
                </mxCell>
                <mxCell id="5" style="edgeStyle=none;html=1;exitX=1;exitY=0.3333333333333333;exitDx=0;exitDy=0;exitPerimeter=0;entryX=0;entryY=0.5;entryDx=0;entryDy=0;endArrow=none;endFill=0;" parent="1" source="71TkZ0XSwTf5tJo2yDu4-7" target="71TkZ0XSwTf5tJo2yDu4-44" edge="1">
                    <mxGeometry relative="1" as="geometry"/>
                </mxCell>
                <mxCell id="33" style="edgeStyle=none;html=1;exitX=1;exitY=0.3333333333333333;exitDx=0;exitDy=0;exitPerimeter=0;entryX=0;entryY=0.5;entryDx=0;entryDy=0;endArrow=none;endFill=0;" parent="1" source="71TkZ0XSwTf5tJo2yDu4-7" target="26" edge="1">
                    <mxGeometry relative="1" as="geometry"/>
                </mxCell>
                <mxCell id="71TkZ0XSwTf5tJo2yDu4-7" value="Passager" style="shape=umlActor;verticalLabelPosition=bottom;verticalAlign=top;html=1;outlineConnect=0;" parent="1" vertex="1">
                    <mxGeometry x="360" y="1348" width="30" height="60" as="geometry"/>
                </mxCell>
                <mxCell id="71TkZ0XSwTf5tJo2yDu4-8" value="Réserver un taxi" style="ellipse;whiteSpace=wrap;html=1;fillColor=#fff2cc;strokeColor=#d6b656;" parent="1" vertex="1">
                    <mxGeometry x="510" y="1283" width="120" height="50" as="geometry"/>
                </mxCell>
                <mxCell id="71TkZ0XSwTf5tJo2yDu4-10" value="gérer les&amp;nbsp;réservations" style="ellipse;whiteSpace=wrap;html=1;fillColor=#fff2cc;strokeColor=#d6b656;" parent="1" vertex="1">
                    <mxGeometry x="510" y="700" width="120" height="40" as="geometry"/>
                </mxCell>
                <mxCell id="71TkZ0XSwTf5tJo2yDu4-12" value="Annuler une réservation" style="ellipse;whiteSpace=wrap;html=1;fillColor=#fff2cc;strokeColor=#d6b656;" parent="1" vertex="1">
                    <mxGeometry x="694" y="1283" width="120" height="50" as="geometry"/>
                </mxCell>
                <mxCell id="71TkZ0XSwTf5tJo2yDu4-13" value="&amp;lt;&amp;lt;include&amp;gt;&amp;gt;" style="html=1;verticalAlign=bottom;labelBackgroundColor=none;endArrow=open;endFill=0;dashed=1;rounded=0;exitX=0;exitY=0.5;exitDx=0;exitDy=0;entryX=1;entryY=0.5;entryDx=0;entryDy=0;" parent="1" source="71TkZ0XSwTf5tJo2yDu4-12" target="71TkZ0XSwTf5tJo2yDu4-8" edge="1">
                    <mxGeometry width="160" relative="1" as="geometry">
                        <mxPoint x="600" y="1323" as="sourcePoint"/>
                        <mxPoint x="760" y="1323" as="targetPoint"/>
                    </mxGeometry>
                </mxCell>
                <mxCell id="71TkZ0XSwTf5tJo2yDu4-14" value="Filtrer les chauffeurs" style="ellipse;whiteSpace=wrap;html=1;fillColor=#fff2cc;strokeColor=#d6b656;" parent="1" vertex="1">
                    <mxGeometry x="510" y="1390.5" width="120" height="50" as="geometry"/>
                </mxCell>
                <mxCell id="71TkZ0XSwTf5tJo2yDu4-18" value="par localisation " style="ellipse;whiteSpace=wrap;html=1;fillColor=#fff2cc;strokeColor=#d6b656;" parent="1" vertex="1">
                    <mxGeometry x="680" y="1373" width="100" height="35" as="geometry"/>
                </mxCell>
                <mxCell id="71TkZ0XSwTf5tJo2yDu4-21" value="par disponibilité " style="ellipse;whiteSpace=wrap;html=1;fillColor=#fff2cc;strokeColor=#d6b656;" parent="1" vertex="1">
                    <mxGeometry x="680" y="1423" width="100" height="35" as="geometry"/>
                </mxCell>
                <mxCell id="71TkZ0XSwTf5tJo2yDu4-23" value="" style="endArrow=block;html=1;rounded=0;entryX=0.97;entryY=0.714;entryDx=0;entryDy=0;entryPerimeter=0;exitX=0;exitY=0.5;exitDx=0;exitDy=0;endFill=0;" parent="1" source="71TkZ0XSwTf5tJo2yDu4-21" target="71TkZ0XSwTf5tJo2yDu4-14" edge="1">
                    <mxGeometry width="50" height="50" relative="1" as="geometry">
                        <mxPoint x="660" y="1440.5" as="sourcePoint"/>
                        <mxPoint x="710" y="1390.5" as="targetPoint"/>
                    </mxGeometry>
                </mxCell>
                <mxCell id="71TkZ0XSwTf5tJo2yDu4-24" value="" style="endArrow=block;html=1;rounded=0;entryX=0.956;entryY=0.309;entryDx=0;entryDy=0;entryPerimeter=0;exitX=0;exitY=0.5;exitDx=0;exitDy=0;endFill=0;" parent="1" source="71TkZ0XSwTf5tJo2yDu4-18" target="71TkZ0XSwTf5tJo2yDu4-14" edge="1">
                    <mxGeometry width="50" height="50" relative="1" as="geometry">
                        <mxPoint x="690" y="1450.5" as="sourcePoint"/>
                        <mxPoint x="637" y="1420.5" as="targetPoint"/>
                    </mxGeometry>
                </mxCell>
                <mxCell id="71TkZ0XSwTf5tJo2yDu4-27" value="Accepter une réservation" style="ellipse;whiteSpace=wrap;html=1;fillColor=#fff2cc;strokeColor=#d6b656;" parent="1" vertex="1">
                    <mxGeometry x="670" y="680" width="100" height="30" as="geometry"/>
                </mxCell>
                <mxCell id="71TkZ0XSwTf5tJo2yDu4-28" value=" refuser une réservation" style="ellipse;whiteSpace=wrap;html=1;fillColor=#fff2cc;strokeColor=#d6b656;" parent="1" vertex="1">
                    <mxGeometry x="670" y="740" width="100" height="30" as="geometry"/>
                </mxCell>
                <mxCell id="71TkZ0XSwTf5tJo2yDu4-29" value="" style="endArrow=block;html=1;rounded=0;entryX=0.987;entryY=0.353;entryDx=0;entryDy=0;exitX=0;exitY=0.5;exitDx=0;exitDy=0;endFill=0;entryPerimeter=0;" parent="1" source="71TkZ0XSwTf5tJo2yDu4-27" target="71TkZ0XSwTf5tJo2yDu4-10" edge="1">
                    <mxGeometry width="50" height="50" relative="1" as="geometry">
                        <mxPoint x="694" y="905" as="sourcePoint"/>
                        <mxPoint x="639" y="920" as="targetPoint"/>
                    </mxGeometry>
                </mxCell>
                <mxCell id="71TkZ0XSwTf5tJo2yDu4-30" value="" style="endArrow=block;html=1;rounded=0;entryX=0.989;entryY=0.648;entryDx=0;entryDy=0;exitX=0;exitY=0.5;exitDx=0;exitDy=0;endFill=0;entryPerimeter=0;" parent="1" source="71TkZ0XSwTf5tJo2yDu4-28" target="71TkZ0XSwTf5tJo2yDu4-10" edge="1">
                    <mxGeometry width="50" height="50" relative="1" as="geometry">
                        <mxPoint x="680" y="720" as="sourcePoint"/>
                        <mxPoint x="633" y="740" as="targetPoint"/>
                    </mxGeometry>
                </mxCell>
                <mxCell id="71TkZ0XSwTf5tJo2yDu4-36" value="créer une annonce" style="ellipse;whiteSpace=wrap;html=1;fillColor=#fff2cc;strokeColor=#d6b656;" parent="1" vertex="1">
                    <mxGeometry x="510" y="793" width="130" height="50" as="geometry"/>
                </mxCell>
                <mxCell id="71TkZ0XSwTf5tJo2yDu4-37" value="Consulter l&#39;historique des trajets" style="ellipse;whiteSpace=wrap;html=1;fillColor=#fff2cc;strokeColor=#d6b656;" parent="1" vertex="1">
                    <mxGeometry x="510" y="893" width="130" height="50" as="geometry"/>
                </mxCell>
                <mxCell id="71TkZ0XSwTf5tJo2yDu4-38" value="envoyer un email au chauffeur d&#39;&lt;span style=&quot;background-color: transparent; color: light-dark(rgb(0, 0, 0), rgb(255, 255, 255));&quot;&gt;une&amp;nbsp;&lt;/span&gt;nouvelle&amp;nbsp;&lt;div&gt;&lt;span style=&quot;background-color: transparent; color: light-dark(rgb(0, 0, 0), rgb(255, 255, 255));&quot;&gt;réservation&lt;/span&gt;&lt;/div&gt;" style="ellipse;whiteSpace=wrap;html=1;fillColor=#fff2cc;strokeColor=#d6b656;" parent="1" vertex="1">
                    <mxGeometry x="1070" y="1059" width="160" height="60" as="geometry"/>
                </mxCell>
                <mxCell id="71TkZ0XSwTf5tJo2yDu4-44" value="Consulter l&#39;historique des trajets" style="ellipse;whiteSpace=wrap;html=1;fillColor=#fff2cc;strokeColor=#d6b656;" parent="1" vertex="1">
                    <mxGeometry x="500" y="1490" width="130" height="60" as="geometry"/>
                </mxCell>
                <mxCell id="71TkZ0XSwTf5tJo2yDu4-46" value="authentication" style="ellipse;whiteSpace=wrap;html=1;fillColor=#fff2cc;strokeColor=#d6b656;" parent="1" vertex="1">
                    <mxGeometry x="840" y="1140" width="120" height="50" as="geometry"/>
                </mxCell>
                <mxCell id="71TkZ0XSwTf5tJo2yDu4-48" value="envoyer un email au passager de l&#39;acceptation\l&#39;annulation de réservation" style="ellipse;whiteSpace=wrap;html=1;fillColor=#fff2cc;strokeColor=#d6b656;" parent="1" vertex="1">
                    <mxGeometry x="1070" y="1139" width="160" height="60" as="geometry"/>
                </mxCell>
                <mxCell id="71TkZ0XSwTf5tJo2yDu4-49" value="envoyer une notification d’annulation au passager et chauffeur" style="ellipse;whiteSpace=wrap;html=1;fillColor=#fff2cc;strokeColor=#d6b656;" parent="1" vertex="1">
                    <mxGeometry x="1070" y="1216.5" width="160" height="60" as="geometry"/>
                </mxCell>
                <mxCell id="23" style="edgeStyle=none;html=1;exitX=0;exitY=0.5;exitDx=0;exitDy=0;entryX=1;entryY=0.5;entryDx=0;entryDy=0;endArrow=none;endFill=0;" parent="1" source="71TkZ0XSwTf5tJo2yDu4-50" target="71TkZ0XSwTf5tJo2yDu4-48" edge="1">
                    <mxGeometry relative="1" as="geometry"/>
                </mxCell>
                <mxCell id="25" style="edgeStyle=none;html=1;exitX=0;exitY=0.5;exitDx=0;exitDy=0;entryX=1;entryY=0.5;entryDx=0;entryDy=0;endArrow=none;endFill=0;" parent="1" source="71TkZ0XSwTf5tJo2yDu4-50" target="71TkZ0XSwTf5tJo2yDu4-38" edge="1">
                    <mxGeometry relative="1" as="geometry"/>
                </mxCell>
                <mxCell id="71TkZ0XSwTf5tJo2yDu4-50" value="&amp;lt;&amp;lt;acteur secondaire&amp;gt;&amp;gt;&lt;div&gt;systeme&lt;/div&gt;" style="rounded=0;whiteSpace=wrap;html=1;" parent="1" vertex="1">
                    <mxGeometry x="1340" y="1139" width="170" height="60" as="geometry"/>
                </mxCell>
                <mxCell id="71TkZ0XSwTf5tJo2yDu4-56" style="rounded=0;orthogonalLoop=1;jettySize=auto;html=1;exitX=0;exitY=0.5;exitDx=0;exitDy=0;entryX=1;entryY=0.5;entryDx=0;entryDy=0;endArrow=none;startFill=0;" parent="1" source="71TkZ0XSwTf5tJo2yDu4-50" target="71TkZ0XSwTf5tJo2yDu4-49" edge="1">
                    <mxGeometry relative="1" as="geometry"/>
                </mxCell>
                <mxCell id="10" value="&amp;lt;&amp;lt;include&amp;gt;&amp;gt;" style="html=1;verticalAlign=bottom;labelBackgroundColor=none;endArrow=open;endFill=0;dashed=1;edgeStyle=orthogonalEdgeStyle;exitX=0.5;exitY=0;exitDx=0;exitDy=0;entryX=0.5;entryY=0;entryDx=0;entryDy=0;" parent="1" source="71TkZ0XSwTf5tJo2yDu4-10" target="71TkZ0XSwTf5tJo2yDu4-46" edge="1">
                    <mxGeometry width="160" relative="1" as="geometry">
                        <mxPoint x="740" y="873" as="sourcePoint"/>
                        <mxPoint x="900" y="873" as="targetPoint"/>
                        <Array as="points">
                            <mxPoint x="570" y="640"/>
                            <mxPoint x="900" y="640"/>
                        </Array>
                    </mxGeometry>
                </mxCell>
                <mxCell id="12" value="&amp;lt;&amp;lt;include&amp;gt;&amp;gt;" style="html=1;verticalAlign=bottom;labelBackgroundColor=none;endArrow=open;endFill=0;dashed=1;edgeStyle=orthogonalEdgeStyle;exitX=1;exitY=0.5;exitDx=0;exitDy=0;entryX=0.336;entryY=0.02;entryDx=0;entryDy=0;entryPerimeter=0;" parent="1" source="71TkZ0XSwTf5tJo2yDu4-36" target="71TkZ0XSwTf5tJo2yDu4-46" edge="1">
                    <mxGeometry width="160" relative="1" as="geometry">
                        <mxPoint x="640" y="748" as="sourcePoint"/>
                        <mxPoint x="931" y="1013" as="targetPoint"/>
                        <Array as="points">
                            <mxPoint x="640" y="820"/>
                            <mxPoint x="880" y="820"/>
                        </Array>
                    </mxGeometry>
                </mxCell>
                <mxCell id="14" value="&amp;lt;&amp;lt;include&amp;gt;&amp;gt;" style="html=1;verticalAlign=bottom;labelBackgroundColor=none;endArrow=open;endFill=0;dashed=1;edgeStyle=orthogonalEdgeStyle;exitX=1;exitY=0.5;exitDx=0;exitDy=0;entryX=0;entryY=0;entryDx=0;entryDy=0;" parent="1" source="71TkZ0XSwTf5tJo2yDu4-37" target="71TkZ0XSwTf5tJo2yDu4-46" edge="1">
                    <mxGeometry width="160" relative="1" as="geometry">
                        <mxPoint x="650" y="843" as="sourcePoint"/>
                        <mxPoint x="890" y="1014" as="targetPoint"/>
                        <Array as="points"/>
                    </mxGeometry>
                </mxCell>
                <mxCell id="16" value="&amp;lt;&amp;lt;include&amp;gt;&amp;gt;" style="html=1;verticalAlign=bottom;labelBackgroundColor=none;endArrow=open;endFill=0;dashed=1;edgeStyle=orthogonalEdgeStyle;exitX=0.5;exitY=0;exitDx=0;exitDy=0;entryX=0;entryY=1;entryDx=0;entryDy=0;" parent="1" source="71TkZ0XSwTf5tJo2yDu4-8" target="71TkZ0XSwTf5tJo2yDu4-46" edge="1">
                    <mxGeometry width="160" relative="1" as="geometry">
                        <mxPoint x="606" y="1033" as="sourcePoint"/>
                        <mxPoint x="823" y="1130" as="targetPoint"/>
                        <Array as="points">
                            <mxPoint x="570" y="1250"/>
                            <mxPoint x="857" y="1250"/>
                        </Array>
                    </mxGeometry>
                </mxCell>
                <mxCell id="19" value="&amp;lt;&amp;lt;include&amp;gt;&amp;gt;" style="html=1;verticalAlign=bottom;labelBackgroundColor=none;endArrow=open;endFill=0;dashed=1;edgeStyle=orthogonalEdgeStyle;exitX=0.5;exitY=0;exitDx=0;exitDy=0;entryX=0.333;entryY=0.97;entryDx=0;entryDy=0;entryPerimeter=0;" parent="1" source="71TkZ0XSwTf5tJo2yDu4-14" target="71TkZ0XSwTf5tJo2yDu4-46" edge="1">
                    <mxGeometry width="160" relative="1" as="geometry">
                        <mxPoint x="580" y="1173" as="sourcePoint"/>
                        <mxPoint x="880" y="1073" as="targetPoint"/>
                        <Array as="points">
                            <mxPoint x="570" y="1350"/>
                            <mxPoint x="880" y="1350"/>
                        </Array>
                    </mxGeometry>
                </mxCell>
                <mxCell id="22" value="&amp;lt;&amp;lt;include&amp;gt;&amp;gt;" style="html=1;verticalAlign=bottom;labelBackgroundColor=none;endArrow=open;endFill=0;dashed=1;edgeStyle=orthogonalEdgeStyle;exitX=1;exitY=0.5;exitDx=0;exitDy=0;entryX=0.5;entryY=1;entryDx=0;entryDy=0;" parent="1" source="71TkZ0XSwTf5tJo2yDu4-44" target="71TkZ0XSwTf5tJo2yDu4-46" edge="1">
                    <mxGeometry width="160" relative="1" as="geometry">
                        <mxPoint x="650" y="1421" as="sourcePoint"/>
                        <mxPoint x="916" y="1088" as="targetPoint"/>
                        <Array as="points">
                            <mxPoint x="900" y="1520"/>
                        </Array>
                    </mxGeometry>
                </mxCell>
                <mxCell id="26" value="gérer son profile" style="ellipse;whiteSpace=wrap;html=1;fillColor=#fff2cc;strokeColor=#d6b656;" parent="1" vertex="1">
                    <mxGeometry x="487" y="1030" width="130" height="50" as="geometry"/>
                </mxCell>
                <mxCell id="29" style="edgeStyle=none;html=1;exitX=0;exitY=0.5;exitDx=0;exitDy=0;entryX=1;entryY=0.5;entryDx=0;entryDy=0;endArrow=block;endFill=0;" parent="1" source="27" target="26" edge="1">
                    <mxGeometry relative="1" as="geometry"/>
                </mxCell>
                <mxCell id="27" value="modifier les information de profile" style="ellipse;whiteSpace=wrap;html=1;fillColor=#fff2cc;strokeColor=#d6b656;" parent="1" vertex="1">
                    <mxGeometry x="697" y="1000" width="130" height="40" as="geometry"/>
                </mxCell>
                <mxCell id="32" style="edgeStyle=none;html=1;exitX=0;exitY=0.5;exitDx=0;exitDy=0;entryX=1;entryY=0.5;entryDx=0;entryDy=0;endArrow=block;endFill=0;" parent="1" source="28" target="26" edge="1">
                    <mxGeometry relative="1" as="geometry"/>
                </mxCell>
                <mxCell id="28" value="supprimer" style="ellipse;whiteSpace=wrap;html=1;fillColor=#fff2cc;strokeColor=#d6b656;" parent="1" vertex="1">
                    <mxGeometry x="697" y="1070" width="130" height="40" as="geometry"/>
                </mxCell>
                <mxCell id="43" value="&amp;lt;&amp;lt;include&amp;gt;&amp;gt;" style="html=1;verticalAlign=bottom;labelBackgroundColor=none;endArrow=open;endFill=0;dashed=1;edgeStyle=orthogonalEdgeStyle;exitX=0.5;exitY=1;exitDx=0;exitDy=0;entryX=0;entryY=0.5;entryDx=0;entryDy=0;" parent="1" source="26" target="71TkZ0XSwTf5tJo2yDu4-46" edge="1">
                    <mxGeometry width="160" relative="1" as="geometry">
                        <mxPoint x="650" y="943" as="sourcePoint"/>
                        <mxPoint x="866" y="1158" as="targetPoint"/>
                        <Array as="points">
                            <mxPoint x="552" y="1165"/>
                        </Array>
                    </mxGeometry>
                </mxCell>
            </root>
        </mxGraphModel>
    </diagram>
</mxfile>